<?xml version="1.0" encoding="utf-8"?>
<!-- Generator: Adobe Illustrator 28.0.0, SVG Export Plug-In . SVG Version: 6.00 Build 0)  -->
<svg version="1.1" id="Layer_1" xmlns="http://www.w3.org/2000/svg" xmlns:xlink="http://www.w3.org/1999/xlink" x="0px" y="0px"
	 viewBox="0 0 65 64.8" style="enable-background:new 0 0 65 64.8;" xml:space="preserve">
<style type="text/css">
	.st0{fill:#443635;}
</style>
<g>
	<path class="st0" d="M21.2,52.7l-0.1,1.6c-1-0.1-2.1-0.1-3.1-0.2l0.1-1c0.1-0.5-0.4-1-0.9-1.1c-0.6,0-1,0.4-1.1,0.9L16,53.8
		c-0.5,0-0.9-0.1-1.4-0.1c-3-2.8-5.9-5.8-8.5-8.9c-0.3-0.3-0.7-0.4-1.1-0.3s-0.7,0.6-0.6,1c0.1,2.1,0.3,4.3,0.5,6.4
		C3.5,53.5,2,55,0.5,56.5c-0.3,0.3-0.4,0.8-0.2,1.1c0.1,0.5,0.4,0.7,0.8,0.7h0.1c4.4-0.6,8.8-1.5,13.1-2.6c0.5,0.1,1,0.1,1.5,0.2
		l-0.1,1c-0.1,0.5,0.4,1,0.9,1.1h0.1c0.5,0,0.9-0.4,1-0.9l0.1-1c1.1,0.1,2.1,0.2,3.2,0.2l-0.1,1.6c0,0.6,0.4,1,0.9,1.1
		c0,0,0,0,0.1,0c0.5,0,1-0.4,1-0.9l0.1-1.6c1.1,0.1,2.1,0.1,3.2,0.1v2.5c0,0.6,0.4,1,1,1l0,0c0.5,0,1-0.4,1-1v-2.5
		c0.6,0,1.1,0,1.7,0c0.5,0,1,0,1.5,0l0.1,3.6c0,0.5,0.5,1,1,1l0,0c0.6,0,1-0.5,1-1l-0.1-3.6c1.1,0,2.1-0.1,3.2-0.1l0.3,5
		c0,0.5,0.5,0.9,1,0.9c0,0,0,0,0.1,0c0.6,0,1-0.5,0.9-1.1l-0.3-5c1.2-0.1,2.3-0.2,3.5-0.3c0.5,3.2,2,6.2,4.4,8.5
		c0.2,0.2,0.4,0.3,0.7,0.3h0.1c10.5-1.4,16.8-12.4,16.8-13.4c0-0.4-0.3-0.7-0.6-0.8c-5.5-3.4-12-6.8-18.6-6.2
		c-0.3,0-0.6,0.2-0.8,0.5c-1.6,2.9-2.4,6.1-2.3,9.1c-1.1,0.1-2.2,0.2-3.4,0.3l-0.3-5c0-0.6-0.5-1-1.1-0.9c-0.6,0-1,0.5-0.9,1.1
		l0.3,5c-1,0.1-2.1,0.1-3.1,0.1l-0.1-3.5c0-0.6-0.5-1-1-1c-0.6,0-1,0.5-1,1l0.1,3.5c-1,0-2.1,0-3.1,0v-2.4c0-0.6-0.4-1-1-1
		c-0.5,0-1,0.4-1,1v2.4c-1,0-2.1-0.1-3.1-0.1l0.1-1.6c0-0.6-0.4-1-0.9-1.1C21.7,51.7,21.3,52.1,21.2,52.7z M3.9,55.9
		c0.9-1,1.8-1.9,2.7-2.9c0.2-0.2,0.3-0.5,0.3-0.8c-0.2-1.3-0.3-2.6-0.4-3.9c1.8,2,3.7,4,5.7,5.8C9.5,54.8,6.7,55.4,3.9,55.9z
		 M45.6,46.3c1.6-0.1,3.3,0.1,4.9,0.5c-1.1,2.4-1.5,4.9-1.2,7.4c0.2,1.3,2.2,1,2-0.3c-0.3-2.2,0.1-4.5,1.1-6.6
		c2.6,0.8,5.7,2.2,9.3,4.5c-1.5,2.6-6.6,9.6-14.3,10.9C43.5,58.5,42.7,52,45.6,46.3z"/>
	<path class="st0" d="M53.1,55.8c0.4,0.4,1,0.4,1.4,0l0.7-0.7l0.7,0.7c0.4,0.4,1,0.4,1.4,0s0.4-1,0-1.4l-0.7-0.7l0.7-0.7
		c0.4-0.4,0.4-1,0-1.4s-1-0.4-1.4,0l-0.8,0.7l-0.7-0.7c-0.4-0.4-1-0.4-1.4,0s-0.4,1,0,1.4l0.7,0.7L53,54.4
		C52.7,54.8,52.7,55.4,53.1,55.8z"/>
	<path class="st0" d="M0.7,29.1c4.9,2.1,5,7.8,0.1,10c-0.3,0.2-0.6,0.5-0.6,0.9s0.2,0.7,0.5,0.9c2.9,1.6,7.5,0.1,9.9-2.1
		c2.8,2.4,8.3,4.4,11.9,0.4c0.2-0.2,0.3-0.5,0.3-0.8s-0.2-0.6-0.5-0.7c-4.2-2.6-2.2-6.2-0.4-11.4c0.1-0.4,0-0.8-0.3-1.1
		c-3.1-2.5-6.8-5.9-0.9-9.9c0.3-0.2,0.5-0.6,0.4-1s-0.4-0.7-0.8-0.8c-0.7-0.2-1.4-0.2-2.1-0.2c-2,0-4,0.5-5.7,1.4
		c1.1-2.4,3.5-5.5,8.4-5.7c0.6,0,1-0.5,1-1c0-0.6-0.5-1-1-1c-7.2,0.2-9.9,5.7-10.8,8.5c-1.9-1.5-4.4-2.3-7-2.3c-0.4,0-0.8,0.3-1,0.7
		C2,14.3,2.2,14.8,2.5,15c5.2,3.2,4.2,10-1.8,12.1C0.3,27.2,0,27.6,0,28S0.3,28.9,0.7,29.1z M6.2,15.8c2.3,0.8,3.4,2.1,3.8,2.4
		s1,0.3,1.4-0.1c1.5-1.6,3.8-2.6,6.3-2.8c-3.9,4.5-2.1,7.5,2.1,11c-1.7,5.2-3.5,9,0.5,12.4c-2.3,1.9-6.8,0.2-8.8-1.9
		c-0.2-0.2-0.5-0.3-0.7-0.3s-0.5,0.1-0.7,0.3c-1.7,1.5-3.8,2.5-6.2,2.7c3.6-3.2,3.4-8.4-0.6-11.3C8.1,25.5,9.4,19.9,6.2,15.8z"/>
	<path class="st0" d="M10,30.4c0.4-0.3,0.5-1,0.2-1.4s-0.3-1,0-1.4s0.2-1.1-0.2-1.4S8.9,26,8.6,26.4c-0.8,1-0.8,2.7,0,3.7
		C8.9,30.7,9.5,30.8,10,30.4z"/>
	<path class="st0" d="M12.9,30.4c0.4,0.3,1.1,0.2,1.4-0.2c0.8-1,0.8-2.7,0-3.7c-0.3-0.4-1-0.5-1.4-0.2s-0.5,1-0.2,1.4s0.3,1,0,1.4
		C12.4,29.5,12.5,30.1,12.9,30.4z"/>
	<path class="st0" d="M36.4,37.5L36.4,37.5c5.8,0,10.3-3.1,12.2-8.1c5.2,5.8,9,11.3,12.8,8.5c3.8-2.9-2.7-11.7-5.6-15.4
		c2.3-0.1,5.5-1.2,9-5.1c0.3-0.3,0.3-0.8,0.1-1.1c-0.2-0.4-0.6-0.6-1-0.5c-4.3,0.5-7.9-3.2-11-6.5c-2.7-2.7-5.4-5.5-8.2-5.1
		l-4.4-3.6c-1.3-1-3.1-0.8-4.2,0.5c-0.9,1.2-0.6,3.3,0.8,4.2l3.7,2.5c-0.8,2-1,4.8-1.1,7.9c-4.6,2.1-8.4,1.3-10-3.4
		c-0.1-0.3-0.4-0.6-0.7-0.6c-0.3-0.1-0.7,0-0.9,0.2c-1.1,1-2.6,5.6-0.8,9c2.1,4.1,7.4,4.3,12,3.6c-0.9,7.7-7.4,8-14.5,5.1
		c-0.4-0.2-0.9,0-1.2,0.3c-0.3,0.4-0.3,0.9,0,1.2C26.3,35,31.3,37.5,36.4,37.5z M60.2,36.2c-2.2,1.7-5.6-3.3-10.9-9.1
		c0.4-1.9,0.6-4.5,0.4-7.1c1,0.9,2.1,1.6,3.2,2C54.8,24.3,62.5,34.4,60.2,36.2z M51.5,10.5c2.9,3,6.2,6.3,10.2,7
		c-5.1,4.5-10,3.5-12.6-1.7c-0.7-3.5-2.1-6.7-4.2-9.7C45.5,6.3,45.9,4.7,51.5,10.5z M38,3.7c-0.5-0.3-0.6-1-0.2-1.5
		c0.3-0.4,0.9-0.5,1.3-0.2l3.6,3c-0.4,0.3-0.8,0.6-1.1,1L38,3.7z M28.8,20.1c-0.9-1.6-0.7-3.7-0.3-5.1c2.4,4,6.6,4.6,10.9,2.9
		c0,1.4-0.1,3-0.2,4.6C33.8,23.4,30.2,22.6,28.8,20.1z M40.9,25.1c1-7.9-0.1-15.2,2.3-18c7.1,10.4,6.7,28.3-6.9,28.3
		c-3,0-6-1-8.4-2.7C35.7,34.6,40.2,31.2,40.9,25.1z"/>
</g>
</svg>
