<?xml version="1.0" encoding="utf-8"?>
<!-- Generator: Adobe Illustrator 28.0.0, SVG Export Plug-In . SVG Version: 6.00 Build 0)  -->
<svg version="1.1" id="Layer_1" xmlns="http://www.w3.org/2000/svg" xmlns:xlink="http://www.w3.org/1999/xlink" x="0px" y="0px"
	 viewBox="0 0 32.1 30.5" style="enable-background:new 0 0 32.1 30.5;" xml:space="preserve">
<style type="text/css">
	.st0{fill:#443635;}
</style>
<g>
	<g>
		<path class="st0" d="M24.8,24.7l6.6-6.8c0.4-0.4,0.7-0.3,0.7,0.3v2.2c0,0.5-0.3,1.2-0.7,1.6l-8,8.2c-0.4,0.4-0.9,0.4-1.3,0l-8-8.2
			c-0.4-0.4-0.7-1.1-0.7-1.6v-2.2c0-0.5,0.3-0.6,0.7-0.3l6.6,6.8c0.4,0.4,0.7,0.3,0.7-0.3V8.3c0-0.5,0.4-0.9,0.9-0.9h0.9
			c0.5,0,0.9,0.4,0.9,0.9v16.2C24.1,24.9,24.4,25.1,24.8,24.7z M7.3,5.8l-6.6,6.8C0.3,12.9,0,12.8,0,12.3v-2.2
			c0-0.5,0.3-1.2,0.7-1.6l8-8.2C9-0.1,9.6-0.1,10,0.3l8,8.2c0.4,0.4,0.7,1.1,0.7,1.6v2.2c0,0.5-0.3,0.6-0.7,0.3l-6.6-6.8
			C11,5.4,10.7,5.5,10.7,6v16.2c0,0.5-0.4,0.9-0.9,0.9H8.9c-0.5,0-0.9-0.4-0.9-0.9V6C7.9,5.5,7.6,5.4,7.3,5.8z"/>
	</g>
</g>
</svg>
