<?xml version="1.0" encoding="utf-8"?>
<!-- Generator: Adobe Illustrator 28.0.0, SVG Export Plug-In . SVG Version: 6.00 Build 0)  -->
<svg version="1.1" id="Layer_1" xmlns="http://www.w3.org/2000/svg" xmlns:xlink="http://www.w3.org/1999/xlink" x="0px" y="0px"
	 viewBox="0 0 34.4 30.3" style="enable-background:new 0 0 34.4 30.3;" xml:space="preserve">
<style type="text/css">
	.st0{fill:#443635;}
</style>
<g>
	<path class="st0" d="M25.4,3c1.6,0,3.1,0.7,4.2,1.8c2.4,2.5,2.4,6.6,0,9.1l-1.8,1.9l-4.2,4.4l-2,2l0,0l0,0l-4.4,4.6l-10.6-11
		l-1.8-1.9c-2.4-2.5-2.4-6.5,0-9C5.9,3.7,7.4,3,9,3s3.1,0.7,4.2,1.8L15,6.7L17.2,9l2.2-2.3l1.8-1.9C22.3,3.7,23.8,3,25.4,3 M25.4,0
		c-2.3,0-4.7,0.9-6.4,2.8l-1.8,1.9l-1.8-1.9C13.7,0.9,11.4,0,9,0S4.4,0.9,2.6,2.8c-3.5,3.7-3.5,9.6,0,13.2l1.8,1.9l11.5,11.9
		c0.3,0.4,0.8,0.5,1.3,0.5s1-0.2,1.3-0.5l5.3-5.5l2-2l4.2-4.4l1.8-1.9c3.5-3.6,3.5-9.5,0-13.2C30.1,0.9,27.8,0,25.4,0L25.4,0z"/>
</g>
</svg>
