<?xml version="1.0" encoding="utf-8"?>
<!-- Generator: Adobe Illustrator 28.0.0, SVG Export Plug-In . SVG Version: 6.00 Build 0)  -->
<svg version="1.1" id="Layer_1" xmlns="http://www.w3.org/2000/svg" xmlns:xlink="http://www.w3.org/1999/xlink" x="0px" y="0px"
	 viewBox="0 0 41.3 37.9" style="enable-background:new 0 0 41.3 37.9;" xml:space="preserve">
<style type="text/css">
	.st0{fill:#443635;stroke:#443635;stroke-miterlimit:10;}
</style>
<g>
	<g>
		<path class="st0" d="M21.8,2.4c0,0.9,0,1.9,0,2.8c0,1.9,0,3.9,0,5.8c0,1.6,0,3.2,0,4.8c0,0.3,0,0.5,0,0.8c0,0.1,0-0.1,0,0.1v0.1
			c0-0.1,0,0,0,0s0,0.1-0.1,0.1c0.1-0.1,0,0,0,0L21.6,17c-0.1,0.1,0,0,0,0s-0.1,0-0.1,0.1c-0.1,0,0.1,0,0,0s-0.2,0-0.1,0h-0.1
			c-0.2,0-0.4,0-0.7,0c-1.7,0-3.3,0-5,0h-0.1c-0.4,0-0.7,0.3-0.7,0.7c0,1.4,0,2.9,0,4.3c0,0.1,0,0.3,0,0.4s0,0.3,0,0
			c0.1-0.1,0.1-0.2,0.2-0.3l0,0c0.1-0.1,0.2-0.1,0.3-0.2h0.1c0.1,0,0.2,0.1,0.4,0.1c0.2,0.1,0,0,0,0c-0.1-0.1-0.2-0.2-0.3-0.3
			c-0.3-0.3-0.7-0.6-1-0.9c-0.9-0.8-1.7-1.6-2.6-2.4c-0.5-0.4-1-0.9-1.4-1.3C10.2,17,9.9,17,9.6,17c-0.4,0-0.9,0-1.3,0
			c-1.2,0-2.4,0-3.5,0c-0.7,0-1.4,0-2.1,0l0,0c0,0-0.1,0,0,0c-0.1,0-0.1,0-0.2,0s0.1,0.1,0,0c0,0-0.1,0-0.1-0.1c0.1,0.1,0,0,0,0
			s-0.1-0.2-0.1-0.1c0,0-0.1-0.2-0.1-0.1c0-0.1,0-0.1,0-0.2c0,0,0,0.1,0,0l0,0c0-0.1,0-0.3,0-0.4c0-0.8,0-1.5,0-2.3c0-2.3,0-4.7,0-7
			c0-1.5,0-3,0-4.5l0,0l0,0V2.2c0,0.1,0-0.1,0-0.1c0-0.1-0.1,0.1,0,0c0,0,0-0.1,0.1-0.1c-0.1,0.1,0,0,0,0l0.1-0.1
			C2.3,2,2.6,1.8,2.5,1.9c-0.1,0,0.1,0,0.1,0c0.2,0-0.1,0,0.1,0c0.1,0,0.2,0,0.2,0c0.5,0,1.1,0,1.6,0c2.1,0,4.2,0,6.3,0
			c2.3,0,4.7,0,7,0c1.2,0,2.4,0,3.7,0l0,0l0,0c0.2,0-0.1,0,0,0s0.1,0,0.2,0c-0.2,0,0.2,0.1,0.1,0S21.9,2,21.9,2L22,2.1
			c-0.1-0.1,0,0,0,0s0.1,0.2,0,0C21.8,2.3,21.8,2.3,21.8,2.4S21.8,2.2,21.8,2.4c0,0.4,0.3,0.7,0.7,0.7c0.4,0,0.7-0.3,0.7-0.7
			c0-1-0.8-1.8-1.8-1.9c-0.1,0-0.2,0-0.3,0c-0.4,0-0.8,0-1.3,0c-1.7,0-3.4,0-5.1,0c-2,0-4.1,0-6.2,0c-1.7,0-3.3,0-4.9,0
			c-0.4,0-0.7,0-1.1,0c-1.1,0-2,0.8-2,1.9c0,1.2,0,2.3,0,3.5c0,2.1,0,4.1,0,6.2c0,1.4,0,2.9,0,4.3c0,0.1,0,0.2,0,0.2
			c0,0.9,0.7,1.7,1.6,1.9c0.6,0.1,1.1,0,1.7,0c1.9,0,3.7,0,5.6,0c0.1,0,0.3,0,0.4,0c-0.2,0-0.3,0-0.5-0.1c1.4,1.2,2.7,2.5,4.1,3.7
			c0.3,0.3,0.7,0.6,1,0.9c0.2,0.2,0.4,0.4,0.6,0.5c0.6,0.3,1.2-0.1,1.2-0.7c0-0.1,0-0.2,0-0.4c0-0.5,0-1,0-1.5c0-1,0-2,0-3
			c-0.2,0.2-0.5,0.5-0.7,0.7c1.5,0,3.1,0,4.6,0c0.7,0,1.5,0.1,2.2-0.3c0.6-0.3,0.9-1,0.9-1.7c0-0.1,0-0.2,0-0.3c0-1.4,0-2.9,0-4.3
			c0-2,0-4,0-6c0-1.2,0-2.3,0-3.5c0,0,0,0,0-0.1c0-0.4-0.3-0.7-0.7-0.7C22.1,1.7,21.8,2,21.8,2.4z"/>
		<path class="st0" d="M39.3,15.8c0,1.8,0,3.6,0,5.4c0,2.6,0,5.2,0,7.9c0,0.3,0,0.6,0,0.9v0.1c0,0,0,0.1,0,0v0.1
			c0,0.2,0.1-0.1,0,0.1c0,0-0.1,0.2,0,0.1l-0.1,0.1c-0.1,0.1,0.1,0-0.1,0c0,0-0.2,0.1-0.1,0c0,0-0.3,0-0.1,0c-0.9,0-1.7,0-2.6,0
			c-1.4,0-2.8,0-4.2,0c-0.4,0-0.7,0-1.1,0s-0.6,0.2-0.8,0.5c-1.7,1.7-3.4,3.4-5.1,5.1c-0.1,0.1-0.3,0.2,0,0.1c0.1,0,0.2-0.1,0.4-0.1
			h0.1c0.1,0.1,0.2,0.1,0.3,0.2l0,0c0.1,0.1,0.1,0.2,0.2,0.3c0.1,0.2,0,0.1,0,0s0-0.3,0-0.4c0-0.4,0-0.9,0-1.3c0-1,0-1.9,0-2.9
			c0-0.2,0-0.5,0-0.7c0-0.4-0.3-0.7-0.7-0.7c-1.3,0-2.6,0-4,0c-0.5,0-0.9,0-1.4,0c0,0-0.1,0,0,0s0,0-0.1,0h-0.1c0,0,0.1,0.1,0,0
			c0,0-0.2-0.1-0.1,0c-0.1,0-0.1-0.1-0.2-0.2c0.1,0.1,0-0.1,0-0.1c0-0.1,0,0.1,0,0v-0.1c0-0.1,0,0.1,0-0.1c0-0.1,0-0.2,0-0.2
			c0-1.2,0-2.4,0-3.7c0-1.7,0-3.5,0-5.2c0-0.7,0-1.4,0-2c0-0.3,0-0.7,0-1l0,0c-0.2,0.2-0.5,0.5-0.7,0.7c0.8,0,1.6,0,2.4,0
			s1.5-0.4,1.8-1.1c0.2-0.5,0.2-1,0.2-1.5s0-0.9,0-1.4c-0.2,0.2-0.5,0.5-0.7,0.7c0.6,0,1.2,0,1.8,0c1.4,0,2.8,0,4.2,0
			c1.6,0,3.3,0,4.9,0c1.3,0,2.7,0,4,0c0.4,0,0.8,0,1.1,0c0.1,0,0.2,0,0.3,0l0,0l0,0c0.1,0-0.1,0,0,0h0.1c0.1,0,0,0,0.1,0h0.1
			c0.1,0-0.1-0.1,0,0l0.1,0.1c-0.1-0.1,0,0,0,0.1c0,0,0,0.1,0,0s0,0,0,0.1C39.3,15.8,39.3,15.8,39.3,15.8S39.3,15.7,39.3,15.8
			c0,0.4,0.3,0.7,0.7,0.7s0.7-0.3,0.7-0.7c0-1.1-0.9-1.9-2-1.9c-0.3,0-0.5,0-0.8,0c-1.2,0-2.5,0-3.7,0c-1.7,0-3.3,0-5,0
			c-1.5,0-3,0-4.5,0c-0.7,0-1.5,0-2.2,0l0,0c-0.4,0-0.7,0.3-0.7,0.7c0,0.7,0,1.4,0,2.1c0,0.1,0,0,0,0v0.1c0,0.1,0,0.1,0,0
			c0,0,0,0.1-0.1,0.1c0,0.1,0,0,0,0L21.6,17l-0.1,0.1c0.1-0.1,0,0-0.1,0c0,0-0.1,0,0,0h-0.1c-0.1,0,0.1,0-0.1,0h-0.1
			c-0.4,0-0.9,0-1.3,0s-0.8,0-1.1,0c-0.4,0-0.7,0.3-0.7,0.7c0,0.9,0,1.8,0,2.6c0,1.7,0,3.5,0,5.2c0,1.3,0,2.7,0,4
			c0,0.6,0.1,1.2,0.6,1.7c0.6,0.6,1.3,0.6,2.1,0.6c1.5,0,3,0,4.5,0h0.1c-0.2-0.2-0.5-0.5-0.7-0.7c0,0.9,0,1.7,0,2.6s0,1.8,0,2.8
			c0,0.7,0.9,1.1,1.4,0.6c0.1,0,0.1-0.1,0.2-0.2c0.3-0.3,0.6-0.6,0.8-0.8c0.9-0.9,1.8-1.8,2.7-2.6c0.6-0.6,1.2-1.2,1.8-1.8
			c-0.2,0.1-0.3,0.1-0.5,0.2c1.6,0,3.2,0,4.9,0c0.9,0,1.7,0,2.6,0c0.2,0,0.5,0,0.7,0c0.9-0.1,1.6-1,1.6-1.9c0-1.2,0-2.4,0-3.6
			c0-2.2,0-4.4,0-6.6c0-1.4,0-2.7,0-4.1c0,0,0,0,0-0.1c0-0.4-0.3-0.7-0.7-0.7C39.6,15.1,39.3,15.4,39.3,15.8z"/>
		<path class="st0" d="M15.3,13.8c0-1.2,0-2.5,0-3.7c0-0.8,0-1.6,0-2.3c0-0.6,0-1.2-0.3-1.8s-0.9-1.1-1.6-1.3
			c-0.4-0.1-0.8-0.1-1.2-0.1s-0.8,0-1.1,0c-0.6,0-1.2,0.2-1.7,0.6c-0.6,0.4-0.9,1.1-1,1.9c0,0.1,0,0.2,0,0.3c0,0.7,0,1.4,0,2.1
			c0,1.4,0,2.9,0,4.3v0.1c0,0.4,0.3,0.7,0.7,0.7c0.4,0,0.7-0.3,0.7-0.7c0-1.2,0-2.3,0-3.5c0-0.8,0-1.6,0-2.3c0-0.2,0-0.5,0-0.7
			c0-0.1,0-0.1,0-0.2l0,0V7.1V7c0,0.1,0,0,0,0c0-0.1,0-0.1,0.1-0.2c0-0.1,0,0.1,0,0V6.7c0.1-0.2,0.2-0.2,0.2-0.3s0,0,0,0l0.1-0.1
			l0.1-0.1c0,0,0.1-0.1,0,0l0.1-0.1c0.1,0,0.1-0.1,0.2-0.1c-0.1,0.1,0.1,0,0.1,0h0.1c0.1,0-0.1,0,0,0s0.1,0,0.2,0h0.1
			c0.2,0,0.3,0,0.5,0c0.4,0,0.8,0,1.1,0h0.1h0.1c0.1,0,0,0,0,0H13c0.2,0.1,0.4,0.2,0.5,0.3c0,0,0.1,0.1,0,0c0,0.1,0.1,0.1,0.1,0.2
			c0,0,0.1,0.2,0,0.1c0,0.1,0,0.2,0.1,0.2c0,0.1,0-0.1,0,0.1V7l0,0c0,0.2,0,0.3,0,0.5c0,0.7,0,1.4,0,2.1c0,1.4,0,2.7,0,4.1v0.1
			c0,0.4,0.3,0.7,0.7,0.7C14.9,14.5,15.3,14.2,15.3,13.8L15.3,13.8z"/>
		<path class="st0" d="M9.2,10.3c1.6,0,3.2,0,4.7,0c0.2,0,0.4,0,0.7,0c0.4,0,0.7-0.3,0.7-0.7S15,8.9,14.6,8.9c-1.6,0-3.2,0-4.7,0
			c-0.2,0-0.4,0-0.7,0c-0.4,0-0.7,0.3-0.7,0.7C8.5,9.9,8.8,10.3,9.2,10.3L9.2,10.3z"/>
		<path class="st0" d="M24.5,20.2c1,0,2.1,0,3.1,0c1.6,0,3.3,0,4.9,0c0.4,0,0.7,0,1.1,0c0.4,0,0.7-0.3,0.7-0.7
			c0-0.4-0.3-0.7-0.7-0.7c-1,0-2.1,0-3.1,0c-1.6,0-3.3,0-4.9,0c-0.4,0-0.7,0-1.1,0s-0.7,0.3-0.7,0.7C23.9,19.8,24.1,20.2,24.5,20.2
			L24.5,20.2z"/>
		<path class="st0" d="M31.3,19.5c0,0.2,0,0.4,0,0.6c0,0.1,0,0.2,0,0.3c0,0,0-0.2,0-0.1v0.1c0,0.1,0,0.1,0,0.2
			c-0.1,0.3-0.1,0.6-0.2,0.9c0,0.2-0.1,0.3-0.2,0.5c0,0.1-0.1,0.2-0.1,0.2c-0.1,0.2,0,0,0,0s-0.1,0.1-0.1,0.2
			c-0.2,0.4-0.4,0.7-0.6,1.1c-0.1,0.1-0.1,0.2-0.2,0.3l-0.1,0.1c0,0-0.1,0.1,0,0s0,0,0,0c-0.1,0.2-0.3,0.4-0.5,0.5
			c-0.2,0.2-0.3,0.3-0.5,0.5c-0.1,0.1-0.2,0.1-0.3,0.2c0.1-0.1,0,0-0.1,0s-0.1,0.1-0.2,0.1c-0.3,0.2-0.5,0.3-0.8,0.5
			c-0.1,0.1-0.3,0.2-0.4,0.2S26.8,26,26.8,26s-0.3,0.1-0.1,0.1c-0.7,0.3-1.5,0.5-2.2,0.7c-0.4,0.1-0.6,0.5-0.5,0.9s0.5,0.6,0.9,0.5
			c2.4-0.5,4.7-1.7,6.2-3.7c0.9-1.2,1.4-2.7,1.6-4.2c0-0.3,0.1-0.6,0-0.9c0-0.4-0.3-0.7-0.7-0.7C31.7,18.8,31.3,19.1,31.3,19.5
			L31.3,19.5z"/>
		<path class="st0" d="M26.2,22.1c0.7,2.2,2.3,4,4.3,5c0.9,0.5,1.8,0.8,2.8,1.1c0.4,0.1,0.8-0.1,0.9-0.5c0.1-0.4-0.1-0.8-0.5-0.9
			s-0.8-0.2-1.3-0.4c-0.4-0.1-0.6-0.2-1-0.4c-0.3-0.2-0.6-0.3-0.9-0.5c-0.1-0.1-0.3-0.2-0.4-0.3c0,0-0.2-0.1-0.1-0.1
			c0.1,0.1,0,0,0,0L29.9,25c-0.4-0.4-0.8-0.8-1.2-1.2c-0.1-0.1,0.1,0.1,0,0l-0.1-0.1c-0.1-0.1-0.1-0.2-0.2-0.3
			c-0.1-0.2-0.2-0.4-0.3-0.6c-0.1-0.2-0.2-0.4-0.3-0.6c0,0,0.1,0.2,0,0.1c0,0,0,0,0-0.1v-0.1c0-0.1-0.1-0.2-0.1-0.3
			c-0.1-0.4-0.5-0.6-0.9-0.5C26.3,21.3,26,21.7,26.2,22.1L26.2,22.1z"/>
		<path class="st0" d="M29.8,19.5c0-0.4,0-0.8,0-1.3c0-0.4-0.3-0.7-0.7-0.7c-0.4,0-0.7,0.3-0.7,0.7c0,0.4,0,0.8,0,1.3
			c0,0.4,0.3,0.7,0.7,0.7C29.5,20.1,29.8,19.9,29.8,19.5L29.8,19.5z"/>
	</g>
</g>
</svg>
