<?xml version="1.0" encoding="utf-8"?>
<!-- Generator: Adobe Illustrator 28.0.0, SVG Export Plug-In . SVG Version: 6.00 Build 0)  -->
<svg version="1.1" id="Layer_1" xmlns="http://www.w3.org/2000/svg" xmlns:xlink="http://www.w3.org/1999/xlink" x="0px" y="0px"
	 viewBox="0 0 67.8 71.4" style="enable-background:new 0 0 67.8 71.4;" xml:space="preserve">
<style type="text/css">
	.st0{fill:#443635;}
</style>
<path class="st0" d="M47.5,19.4c-3.4,0-6.1-2.7-6.1-6.1s2.7-6.1,6.1-6.1c3.4,0,6.1,2.7,6.1,6.1S50.9,19.4,47.5,19.4 M47.5,35.7
	c0,0,12.7-15.9,12.7-22.9S54.6,0,47.5,0c-7,0-12.7,5.7-12.7,12.7C34.8,19.8,47.5,35.7,47.5,35.7 M17.9,66.3L4.6,60.9v-38l13.2,5.5
	v37.9H17.9z M67.8,65.5v-48L63,15c-0.4,1.4-0.9,2.8-1.7,4.3l1.8,1.3v37.9L49.9,53V36c-0.5,0.6-0.8,1.1-1,1.3L47.5,39l-1.4-1.7
	c-0.2-0.2-0.5-0.6-0.9-1.2v19l-22.7,9.4v-38l12-4.1c-0.8-1.5-1.4-2.9-1.9-4.2l-14.7,5.2L0,16v48l17.9,7.4l32-13.2l0,0L67.8,65.5z"/>
</svg>
