<?xml version="1.0" encoding="utf-8"?>
<!-- Generator: Adobe Illustrator 28.0.0, SVG Export Plug-In . SVG Version: 6.00 Build 0)  -->
<svg version="1.1" id="Layer_1" xmlns="http://www.w3.org/2000/svg" xmlns:xlink="http://www.w3.org/1999/xlink" x="0px" y="0px"
	 viewBox="0 0 19.5 17.5" style="enable-background:new 0 0 19.5 17.5;" xml:space="preserve">
<style type="text/css">
	.st0{fill:#443635;}
</style>
<g>
	<path class="st0" d="M0.8,3.5h10.4C11.5,5,13,5.8,14.5,5.4c0.9-0.3,1.6-1,1.9-1.9h2.4c0.4,0,0.8-0.3,0.8-0.8S19.2,2,18.8,2h-2.4
		C16,0.5,14.5-0.3,13,0.1c-0.9,0.3-1.6,1-1.9,1.9H0.8C0.3,2,0,2.3,0,2.7S0.3,3.5,0.8,3.5z M13.8,1.5c0.7,0,1.2,0.6,1.2,1.2
		S14.4,4,13.8,4c-0.7,0-1.2-0.6-1.2-1.2S13.1,1.5,13.8,1.5z"/>
	<path class="st0" d="M18.8,8H8.4C8,6.5,6.5,5.7,5,6.1C4.1,6.4,3.4,7.1,3.1,8H0.8C0.3,8,0,8.3,0,8.7s0.3,0.8,0.8,0.8h2.4
		C3.5,11,5,11.8,6.5,11.4c0.9-0.3,1.6-1,1.9-1.9h10.4c0.4,0,0.8-0.3,0.8-0.8S19.2,8,18.8,8z M5.8,10c-0.7,0-1.2-0.6-1.2-1.2
		s0.6-1.2,1.2-1.2S7,8.1,7,8.7S6.4,10,5.8,10z"/>
	<path class="st0" d="M18.8,14h-2.4c-0.4-1.5-1.9-2.3-3.4-1.9c-0.9,0.3-1.6,1-1.9,1.9H0.8C0.3,14,0,14.3,0,14.7s0.3,0.8,0.8,0.8
		h10.4c0.4,1.5,1.9,2.3,3.4,1.9c0.9-0.3,1.6-1,1.9-1.9h2.4c0.4,0,0.8-0.3,0.8-0.8S19.2,14,18.8,14z M13.8,16c-0.7,0-1.2-0.6-1.2-1.2
		s0.6-1.2,1.2-1.2c0.7,0,1.2,0.6,1.2,1.2S14.4,16,13.8,16z"/>
</g>
</svg>
